<?xml version="1.0" encoding="UTF-8"?>
<svg id="Layer_1" xmlns="http://www.w3.org/2000/svg" version="1.1" viewBox="0 0 691.08 207.27">
  <!-- Generator: Adobe Illustrator 29.6.1, SVG Export Plug-In . SVG Version: 2.1.1 Build 9)  -->
  <defs>
    <style>
      .st0 {
        fill: #fff;
      }

      .st0, .st1 {
        fill-rule: evenodd;
      }

      .st1 {
        fill: #32feff;
      }
    </style>
  </defs>
  <g id="Logo">
    <path id="Fill-1" class="st0" d="M644.32,67.41c-4.29.03-7.76,3.57-7.76,7.92s3.32,7.74,7.48,7.92h19.77s0,0,0,0c14.24,0,25.8,11.72,25.8,26.16s-11.5,26.09-25.68,26.16h-39.68c-1.26,0-1.89-.82-2.32-1.84l-5.76-14.07c-.54-1.26.35-2.32,1.36-2.32h46.4c4.28-.06,7.73-3.57,7.73-7.92s-3.45-7.85-7.73-7.92h-19.56c-14.24,0-25.8-11.72-25.8-26.16s11.56-26.16,25.8-26.16h41c1.26,0,2.28.83,1.84,1.84l-6.24,14.55c-.42.98-1.31,1.84-2.32,1.84h-34.28s-.05,0-.05,0"/>
    <path id="Fill-2" class="st0" d="M368.46,83.25l-21.8,49.44c-.72,1.59-1.09,2.87-2.68,2.87h-14.4c-2.07,0-3.2-.56-2.2-2.87l35.21-80.95c.72-1.35,1.17-2.33,2.75-2.33h6.23c1.58,0,2.03.99,2.75,2.33l35.21,80.95c1,2.3-.14,2.87-2.2,2.87h-14.4c-1.58,0-1.96-1.29-2.68-2.88l-21.8-49.44"/>
    <path id="Fill-3" class="st0" d="M476.17,135.57c-1.02,0-1.84-.83-1.84-1.84V51.02c0-1.02.83-1.84,1.84-1.84h14.55c1.02,0,1.84.83,1.84,1.84v66.32h37.04c1.02,0,1.92,1.07,1.36,2.32l-6,14.07c-.56,1.26-1.31,1.84-2.56,1.84h-46.23"/>
    <path id="Fill-4" class="st0" d="M424.41,67.41h-23.12c-1.02,0-1.84-.83-1.84-1.84v-14.55c0-1.02.83-1.84,1.84-1.84h64.47c1.02,0,1.84.83,1.84,1.84v14.55c0,1.02-.83,1.84-1.84,1.84h-23.12v66.32c0,1.02-.83,1.84-1.84,1.84h-14.55c-1.02,0-1.84-.83-1.84-1.84v-66.32"/>
    <path id="Fill-5" class="st0" d="M573.35,83.25l-21.8,49.44c-.72,1.59-1.09,2.87-2.68,2.87h-14.4c-2.06,0-3.2-.56-2.2-2.87l35.21-80.95c.72-1.35,1.17-2.33,2.75-2.33h6.23c1.59,0,2.03.99,2.75,2.33l35.21,80.95c1,2.3-.14,2.87-2.2,2.87h-14.4c-1.58,0-1.96-1.29-2.68-2.88l-21.8-49.44"/>
    <path id="Fill-6" class="st0" d="M224.65,49.17h38.72c14.97,0,27.12,12.53,27.12,27.96,0,11.6-6.87,21.56-16.64,25.79l19.98,29.77c.48,2.3-.86,2.87-2.92,2.87h-15.12c-1.58,0-2.2-1.53-3.16-2.88l-19.1-27.6h-12.48v28.64c0,1.02-.83,1.84-1.84,1.84h-14.55c-1.02,0-1.84-.83-1.84-1.84V51.02c0-1.02.83-1.84,1.84-1.84ZM263.37,67.41h-22.32v19.44h22.32v-.04c5.18,0,9.39-4.34,9.39-9.68s-4.21-9.68-9.39-9.68v-.04h0Z"/>
    <path id="Fill-7" class="st0" d="M175.79,83.25l-21.8,49.44c-.72,1.59-1.09,2.87-2.68,2.87h-14.4c-2.07,0-3.2-.56-2.2-2.87l35.21-80.95c.72-1.35,1.17-2.33,2.75-2.33h6.23c1.59,0,2.03.99,2.75,2.33l35.21,80.95c1,2.3-.14,2.87-2.2,2.87h-14.4c-1.58,0-1.96-1.29-2.68-2.88l-21.8-49.44"/>
    <path id="Fill-8" class="st0" d="M99.69,67.41h-26c-1.26,0-2.06-.83-1.44-2.32l6.08-14.07c.3-.73,1.07-1.84,2.08-1.84h60.63c1.02,0,1.84.83,1.84,1.84v14.55c0,1.02-.83,1.84-1.84,1.84h-23.12v66.32c0,1.02-.83,1.84-1.84,1.84h-14.55c-1.02,0-1.84-.83-1.84-1.84v-66.32"/>
    <path id="Fill-9" class="st0" d="M27.76,67.41c-4.29.03-7.76,3.57-7.76,7.92s3.32,7.74,7.48,7.92h19.77s0,0,0,0c14.24,0,25.8,11.72,25.8,26.16s-11.5,26.09-25.68,26.16H2.17c-1.26,0-2.18-1.06-1.84-1.84l6-14.55c.23-.8,1.07-1.84,2.08-1.84h38.96c4.28-.06,7.73-3.57,7.73-7.92s-3.45-7.85-7.73-7.92h-19.56c-14.24,0-25.8-11.72-25.8-26.16s11.56-26.16,25.8-26.16h41.96c1.02,0,1.98.71,1.6,1.84l-6.24,14.55c-.54,1.3-1.31,1.84-2.32,1.84H27.81s-.05,0-.05,0"/>
    <polyline id="Fill-10" class="st1" points="368.49 158.37 354.09 129.57 382.41 129.57 368.49 158.37"/>
  </g>
</svg>